<?xml version="1.0" standalone="no"?>
<!DOCTYPE svg PUBLIC "-//W3C//DTD SVG 20010904//EN"
 "http://www.w3.org/TR/2001/REC-SVG-20010904/DTD/svg10.dtd">
<svg version="1.0" xmlns="http://www.w3.org/2000/svg"
 width="582.000000pt" height="582.000000pt" viewBox="0 0 582.000000 582.000000"
 preserveAspectRatio="xMidYMid meet">
<metadata>
Created by potrace 1.14, written by Peter Selinger 2001-2017
</metadata>
<g transform="translate(0.000000,582.000000) scale(0.100000,-0.100000)"
fill="#000000" stroke="none">
<path d="M3190 5004 c-426 -108 -775 -196 -775 -197 -1 -1 2 -474 6 -1052 3
-577 5 -1051 4 -1053 -1 -1 -208 -54 -461 -118 -252 -63 -467 -117 -476 -120
-17 -5 -18 43 -18 911 l0 915 -27 -7 c-16 -4 -235 -57 -488 -118 l-460 -111
-3 -920 -2 -919 -243 -61 -242 -60 -3 -417 c-1 -229 1 -417 4 -417 4 0 111 27
239 60 128 33 235 60 239 60 3 0 6 -171 6 -380 l0 -380 490 0 490 0 0 504 0
504 478 119 479 120 6 -435 c4 -240 7 -520 7 -624 l0 -188 470 0 470 0 0 744
0 744 468 116 c257 64 475 119 485 122 16 5 17 -41 17 -860 l0 -866 490 0 490
0 0 989 0 989 208 51 c114 29 224 56 245 62 l37 10 0 414 c0 228 -2 415 -5
415 -6 0 -439 -108 -467 -116 -17 -5 -18 20 -18 420 0 234 -3 427 -7 429 -5 2
-224 -49 -488 -114 -264 -65 -481 -118 -482 -119 -2 0 -3 -195 -3 -434 l0
-434 -467 -116 c-258 -64 -476 -119 -485 -122 -17 -5 -18 29 -18 628 l0 633
283 68 c155 38 290 71 300 73 16 5 17 34 17 430 0 233 -3 424 -7 423 -5 0
-357 -88 -783 -195z"/>
</g>
</svg>
