<?xml version="1.0" encoding="UTF-8"?>
<svg xmlns="http://www.w3.org/2000/svg" viewBox="0 0 416.41 112.62">
  <defs>
    <style>
      .cls-1 {
        fill: #ebb364;
      }
    </style>
  </defs>
  <g>
    <g>
      <path class="cls-1" d="M35.18,21.86V109.81H11.77V27.5l23.41-5.63Z"/>
      <path class="cls-1" d="M80.88,16.23s0,93.58,0,93.58h-22.41c0-25.26-.53-87.95-.53-100.51"/>
      <path class="cls-1" d="M127.67,21.86V109.81h-23.41V27.57l23.41-5.71Z"/>
      <path class="cls-1" d="M167.58,64.11c2.98-4.6,7.08-8.15,12.32-10.66,5.24-2.51,11.13-3.77,17.68-3.77s12.55,1.26,17.75,3.77c5.19,2.51,9.3,6.06,12.32,10.66,3.02,4.6,4.53,10.04,4.53,16.34s-1.51,11.62-4.53,16.22c-3.02,4.6-7.13,8.15-12.32,10.66-5.19,2.51-11.11,3.77-17.75,3.77s-12.45-1.26-17.68-3.77c-5.24-2.51-9.34-6.06-12.32-10.66-2.98-4.6-4.47-10-4.47-16.22s1.49-11.75,4.47-16.34Zm19.85,23.3c1.06,1.91,2.49,3.36,4.28,4.34,1.79,.98,3.74,1.47,5.87,1.47s4.09-.49,5.87-1.47c1.79-.98,3.23-2.43,4.34-4.34,1.11-1.91,1.66-4.23,1.66-6.96s-.55-5.04-1.66-6.96c-1.11-1.91-2.55-3.38-4.34-4.4-1.79-1.02-3.75-1.53-5.87-1.53s-4.09,.51-5.87,1.53-3.21,2.49-4.28,4.4c-1.07,1.92-1.6,4.24-1.6,6.96s.53,5.04,1.6,6.96Z"/>
      <path class="cls-1" d="M231.35,63.6c2.68-4.51,6.13-7.94,10.34-10.28,4.21-2.34,8.62-3.51,13.21-3.51,4.93,0,9.32,1.23,13.15,3.7,3.83,2.47,6.87,5.98,9.13,10.53,2.26,4.55,3.38,10.02,3.38,16.4s-1.13,11.75-3.38,16.34c-2.26,4.6-5.3,8.13-9.13,10.6s-8.21,3.7-13.15,3.7c-4.6,0-9-1.17-13.21-3.51s-7.66-5.79-10.34-10.34c-2.68-4.55-4.02-10.15-4.02-16.79s1.34-12.34,4.02-16.85Zm20.87,23.75c1.11,2.04,2.6,3.62,4.47,4.72,1.87,1.11,3.91,1.66,6.13,1.66,1.96,0,3.87-.53,5.75-1.6,1.87-1.06,3.4-2.57,4.6-4.53,1.19-1.96,1.79-4.34,1.79-7.15s-.6-5.19-1.79-7.15c-1.19-1.96-2.72-3.47-4.6-4.53-1.87-1.06-3.79-1.6-5.75-1.6-2.21,0-4.26,.55-6.13,1.66-1.87,1.11-3.36,2.66-4.47,4.66-1.11,2-1.66,4.32-1.66,6.96s.55,4.85,1.66,6.89Zm44.81-71.11V109.81h-22.09V21.59l22.09-5.36Z"/>
      <path class="cls-1" d="M299.15,63.6c2.68-4.51,6.13-7.94,10.34-10.28,4.21-2.34,8.62-3.51,13.21-3.51,4.93,0,9.32,1.23,13.15,3.7,3.83,2.47,6.87,5.98,9.13,10.53,2.26,4.55,3.38,10.02,3.38,16.4s-1.13,11.75-3.38,16.34c-2.26,4.6-5.3,8.13-9.13,10.6s-8.21,3.7-13.15,3.7c-4.6,0-9-1.17-13.21-3.51s-7.66-5.79-10.34-10.34c-2.68-4.55-4.02-10.15-4.02-16.79s1.34-12.34,4.02-16.85Zm20.87,23.75c1.11,2.04,2.6,3.62,4.47,4.72,1.87,1.11,3.91,1.66,6.13,1.66,1.96,0,3.87-.53,5.75-1.6,1.87-1.06,3.4-2.57,4.6-4.53,1.19-1.96,1.79-4.34,1.79-7.15s-.6-5.19-1.79-7.15c-1.19-1.96-2.72-3.47-4.6-4.53-1.87-1.06-3.79-1.6-5.75-1.6-2.21,0-4.26,.55-6.13,1.66-1.87,1.11-3.36,2.66-4.47,4.66-1.11,2-1.66,4.32-1.66,6.96s.55,4.85,1.66,6.89Zm44.81-71.11V109.81h-22.09V21.62l22.09-5.39Z"/>
      <path class="cls-1" d="M378.62,93.6c2.64,1.36,4.89,2.26,6.77,2.68,1.87,.43,3.32,.64,4.34,.64,1.62,0,2.81-.34,3.57-1.02,.77-.68,1.15-1.62,1.15-2.81,0-1.02-.32-1.89-.96-2.62s-1.83-1.47-3.57-2.23c-1.75-.77-4.32-1.7-7.72-2.81-2.81-.94-5.49-2.11-8.04-3.51s-4.62-3.32-6.19-5.74c-1.58-2.43-2.36-5.55-2.36-9.38s.98-6.75,2.94-9.26c1.96-2.51,4.64-4.42,8.04-5.74,3.4-1.32,7.36-1.98,11.87-1.98,3.49,0,6.75,.36,9.77,1.08,3.02,.72,5.89,1.66,8.62,2.81,2.72,1.15,5.4,2.49,8.04,4.02l-6.51,14.68c-2.72-2.38-5.77-4.32-9.13-5.81-3.36-1.49-6.32-2.23-8.87-2.23-1.62,0-2.79,.3-3.51,.89-.72,.6-1.08,1.32-1.08,2.17,0,1.19,.51,2.15,1.53,2.87,1.02,.72,2.55,1.43,4.6,2.11,2.04,.68,4.64,1.62,7.79,2.81,2.98,1.11,5.72,2.36,8.23,3.77,2.51,1.4,4.55,3.21,6.13,5.43,1.57,2.22,2.36,5.15,2.36,8.81,0,6.64-1.98,11.53-5.94,14.68-3.96,3.15-9.56,4.72-16.79,4.72-4.34,0-8.41-.43-12.19-1.28-3.79-.85-7.34-2.04-10.66-3.58-3.32-1.53-6.51-3.27-9.58-5.23l8.04-15.07c3.57,2.72,6.68,4.77,9.32,6.13Z"/>
      <polygon class="cls-1" points="139.44 59.42 0 94.42 0 74.56 139.44 39.56 139.44 59.42"/>
      <polygon class="cls-1" points="95.35 20.27 58.47 29.24 57.94 9.38 95.35 0 95.35 20.27"/>
    </g>
  </g>
</svg>