<svg width="58" height="58" viewBox="0 0 58 58" fill="none" xmlns="http://www.w3.org/2000/svg">
<path d="M32.6154 20.0714C32.6154 17.1071 38.1288 14.7143 43.4615 14.7143C42.0515 8.58929 36.1042 4 29 4C21.8958 4 15.9485 8.58929 14.5385 14.7143C19.8712 14.7143 25.3846 17.1071 25.3846 20.0714C25.3846 26 15.2796 30.7857 5.5 30.7857C6.91 37.9286 12.8573 43.2857 19.9615 43.2857L29 54L38.0385 43.2857C45.1427 43.2857 51.09 37.9286 52.5 30.7857C42.7204 30.7857 32.6154 26 32.6154 20.0714ZM21.5342 11.3214C23.4323 9.55357 26.1077 8.46429 29 8.46429C31.8923 8.46429 34.5677 9.55357 36.4658 11.3214C33.1577 12.375 30.3738 14.1964 29 16.6429C27.6262 14.1964 24.8423 12.3929 21.5342 11.3214ZM33.4469 42.4821C32.4346 40.8036 30.8258 39.7143 29 39.7143C27.1742 39.7143 25.5835 40.8036 24.5712 42.4464L16.2015 32.6786C17.7381 32.1786 19.2204 31.5893 20.5762 30.9107L25.3846 36.1429L29 32.5714L32.6154 36.1429L37.4781 30.9464C38.8519 31.6429 40.3523 32.2321 41.9069 32.7321L33.4469 42.5V42.4821Z" fill="#ffffd2"/>
</svg>
