<svg xmlns="http://www.w3.org/2000/svg" fill="#ffffd2" viewBox="0 0 32 32">
  <path d="M27,14c0-3.46-2.06-6.16-3.53-7.65.32-.36.53-.82.53-1.34,0-1.1-.9-2-2-2s-2,.9-2,2,.9,2,2,2c1.48,1.82,2.01,3.41,2.01,6,0,4.76-6.6,7.18-8,8v.34s0,0,0,0v-.34c-1.4-.82-8-3.24-8-8,0-2.58.53-4.18,2.01-6,1.1,0,2-.9,2-2s-.9-2-2-2-2,.9-2,2c0,.52.2.99.53,1.34-1.47,1.49-3.53,4.19-3.53,7.65,0,4.54,4.39,7.33,7.63,8.78h0c1.1.56,3.93,3.12,3.37,4.23l-4.76-1.59c-1.23-2.14-3.11-3.27-8.24-2.41,2.26,5.15,5.24,5.83,8.46,4.28l2.63,1.24c3.67,1.87,6.35-2.13,4.03-5.22,3.2-1.23,8.89-4.14,8.89-9.3Z"/>
  <path d="M20,27c3.42,1.89,6.62,1.44,9-4-6.28-1.04-7.69.87-9,4Z"/>
  <path d="M15,7c2.14.08,4,1.84,4,4s-1.81,3.97-4,4c-.55,0-1-.45-1-1s.45-1,1-1c1.1,0,2-.9,2-2s-.9-2-2-2c-1.99,0-5,1.03-5,4s2.69,5,6,5,6-2.93,6-6.51-3.69-6.49-7-6.49c-.55,0-1,.45-1,1s.45,1,1,1Z"/>
</svg>
