<svg xmlns="http://www.w3.org/2000/svg" fill="#fff" viewBox="0 0 32 32"><path d="m16.66,4.66l9.67,9.67-1.42,1.42-1.41-1.41-1.41,1.41-10.24,10.24h-3.27l-3.57-3.57v-3.27l10.23-10.24,1.41-1.41-1.41-1.41,1.42-1.42h0Zm0-1.99c-.51,0-1.02.2-1.41.59l-1.42,1.42c-.78.78-.78,2.05,0,2.83L3,18.33v4.93l4.74,4.74h4.93l10.83-10.83c.39.39.9.59,1.41.59s1.02-.2,1.41-.59l1.42-1.42c.78-.78.78-2.05,0-2.83L18.08,3.25c-.39-.39-.9-.59-1.41-.59h0Zm6.98,19.93c-.47.47-.76,1.11-.76,1.82,0,1.42,1.15,2.56,2.56,2.56s2.56-1.15,2.56-2.56v-6.39l-4.36,4.56h0Zm-4.64-11.1c0,.83-.67,1.5-1.5,1.5s-1.5-.67-1.5-1.5.67-1.5,1.5-1.5,1.5.67,1.5,1.5Zm-7.01,3.5l-4.99,4.99v1.62l2.4,2.4h1.62l9-9h-8.03Zm1.01,4c-.55,0-1-.45-1-1s.45-1,1-1,1,.45,1,1-.45,1-1,1Zm12-14.5c0,.83-.67,1.5-1.5,1.5s-1.5-.67-1.5-1.5.67-1.5,1.5-1.5,1.5.67,1.5,1.5Z"/></svg>
