<svg xmlns="http://www.w3.org/2000/svg" fill="#fff" viewBox="0 0 32 32"><path d="M11.33,22.59l-3.8-3.58h0s-.19.87-.19.87c-.19.87.08,1.77.73,2.38l2.9,2.74-1,2.83-5.84-3.39c-1.29-.75-1.9-2.29-1.47-3.72l1.57-5.27c.47-1.55,1.6-2.82,3.09-3.46l1.85-.79c-.94-1.07-1.7-2.45-1.7-3.7,0-2.49,2.01-4.5,4.5-4.5s4.5,2.01,4.5,4.5c0,1.2-.7,2.53-1.6,3.58l.11.04c1.7.64,3.01,1.91,3.76,3.47-.48.49-.87,1.05-1.19,1.66-.47-.15-.97-.25-1.49-.25-2.76,0-5,2.24-5,5,0,.54.1,1.07.27,1.59ZM29.21,19.63l-.35-1.01c-.57-1.67-1.82-3.03-3.43-3.75.86-.92,1.53-2.25,1.53-3.37,0-1.93-1.57-3.5-3.5-3.5s-3.5,1.57-3.5,3.5c0,1.15.71,2.52,1.6,3.45-1.03.51-1.8,1.32-2.28,2.27,1.07.92,1.77,2.26,1.77,3.78,0,.5-.09,1.01-.24,1.5l4.24-3.33c.53,1.07.25,2.36-.68,3.1l-3,2.4.6,2.33,5.87-3.55c1.3-.79,1.88-2.38,1.38-3.81h-.01ZM19.06,21c0-1.66-1.34-3-3-3s-3,1.34-3,3c0,1.19.98,2.71,1.93,3.49l-3.02,1.51,1,4h6l1-4-2.91-1.46c.97-.76,2-2.33,2-3.54Z"/></svg>
