<?xml version="1.0" encoding="utf-8"?>
<!-- Generator: Adobe Illustrator 23.0.3, SVG Export Plug-In . SVG Version: 6.00 Build 0)  -->
<svg version="1.1" id="hextech-stat-armor" xmlns="http://www.w3.org/2000/svg" xmlns:xlink="http://www.w3.org/1999/xlink" x="0px"
	 y="0px" viewBox="0 0 32 32" style="enable-background:new 0 0 32 32;" xml:space="preserve">
<style type="text/css">
	.st0{fill:#F16F59;}
</style>
<title>stat-armor</title>
<path class="st0" d="M1.3,1.3h29.3v17.3C28,24.3,23.1,28.4,16,30.7C8.9,28.4,4,24.3,1.3,18.6L1.3,1.3L1.3,1.3z M4.8,4.8v13
	C7,22,10.7,25.1,16,27c5.3-2,9-5,11.2-9.2v-13L4.8,4.8L4.8,4.8z M8.2,8.2h15.5v8.6c-1.3,2.3-5.2,5.4-7.8,6.5
	c-2.6-1.1-6.5-4.2-7.8-6.5L8.2,8.2L8.2,8.2z"/>
</svg>
