<?xml version="1.0" encoding="utf-8"?>
<!-- Generator: Adobe Illustrator 23.0.3, SVG Export Plug-In . SVG Version: 6.00 Build 0)  -->
<svg version="1.1" id="hextech-stat-attackSpeed" xmlns="http://www.w3.org/2000/svg" xmlns:xlink="http://www.w3.org/1999/xlink"
	 x="0px" y="0px" viewBox="0 0 32 32" style="enable-background:new 0 0 32 32;" xml:space="preserve">
<style type="text/css">
	.st0{fill:#F4C452;}
</style>
<title>stat-attackSpeed</title>
<path class="st0" d="M1.3,6V1.3h18.3L15,6H1.3L1.3,6z M1.3,12V7.3h12.3L9,12H1.3L1.3,12z M1.3,13.3V18h1.8l4.6-4.7H1.3L1.3,13.3z
	 M22.5,1.3H26v3.5L1.3,29.5v-7C1.3,22.5,22.5,1.3,22.5,1.3z M22.1,11.4l-8.3,8.2c0.5,4-0.8,8.1-3.5,11.1
	C35.6,30.8,30.2,6.3,30.2,6.3C27.8,12,22.1,11.4,22.1,11.4z"/>
</svg>
