<svg width="20" height="20" viewBox="0 0 20 20" fill="none" xmlns="http://www.w3.org/2000/svg">
<path d="M15.9754 10.9429L10.5405 20L5.10655 10.9429C5.008 10.7787 5.21596 10.6033 5.37237 10.7211C6.54868 11.6051 8.85337 13.1573 10.5405 13.1573C12.2277 13.1573 14.5324 11.606 15.7087 10.7211C15.8651 10.6033 16.073 10.7787 15.9745 10.9429H15.9754ZM5.02518 9.37954L10.734 0L12.5713 3.82079L15.5839 8.81283C15.6626 8.94268 15.5414 9.09834 15.3877 9.06652C14.4998 8.88077 12.3244 8.46197 10.734 8.46197C9.11286 8.46197 6.32264 9.28839 5.23585 9.63065C5.07852 9.68053 4.942 9.51713 5.02518 9.3804V9.37954ZM7.57761 7.80668C7.54325 7.86 7.59659 7.9245 7.65808 7.90472C8.14542 7.74907 9.65535 7.05938 10.3778 7.07572C11.0658 7.0912 13.1345 7.77056 13.9618 7.97093C14.0378 7.98899 14.083 7.89354 14.0179 7.85226C13.3136 7.39906 11.7593 6.3439 11.5053 5.71183C11.2376 5.0445 11.1038 3.5327 10.9881 3.14056C10.9718 3.08466 10.894 3.07778 10.8624 3.12766L7.5758 7.80668H7.57761Z" fill="#F6FDFF"/>
</svg>
