<?xml version="1.0" encoding="utf-8"?>
<!-- Generator: Adobe Illustrator 23.0.3, SVG Export Plug-In . SVG Version: 6.00 Build 0)  -->
<svg version="1.1" id="hextech-stat-magicResist" xmlns="http://www.w3.org/2000/svg" xmlns:xlink="http://www.w3.org/1999/xlink"
	 x="0px" y="0px" viewBox="0 0 32 32" style="enable-background:new 0 0 32 32;" xml:space="preserve">
<style type="text/css">
	.st0{fill:#CF8DD1;}
</style>
<title>stat-magicResist</title>
<path class="st0" d="M16,22.7c3.7,0,6.7-3,6.7-6.7s-3-6.7-6.7-6.7s-6.7,3-6.7,6.7S12.3,22.7,16,22.7z"/>
<path class="st0" d="M30.7,16c0-8.1-6.6-14.7-14.7-14.7S1.3,7.9,1.3,16c0,8.1,6.6,14.7,14.7,14.7S30.7,24.1,30.7,16z M26.7,16
	c0,5.9-4.8,10.7-10.7,10.7S5.3,21.9,5.3,16S10.1,5.3,16,5.3S26.7,10.1,26.7,16z"/>
</svg>
